# xmcd
#
# Track frame offsets:
#	150
#	7381
#	12679
#	22694
#	31373
#	35307
#	37487
#	41367
#	45187
#	49214
#	52677
#	55121
#	58159
#	63142
#	68422
#	71011
#	76899
#	93034
#	105760
#	126825
#	145844
#	149314
#	162649
#	172459
#	182669
#	193180
#	210289
#	223882
#	234392
#	237115
#	240722
#	247531
#	255864
#	262494
#	272292
#	277606
#	285335
#	291598
#	297326
#	309576
#	315259
#	321373
#	325815
#	328990
#
# Disc length: 4434 seconds
# Revision: 0
# Processed by: cddbd v1.5.2PL0 Copyright (c) Steve Scherf et al.
# Submitted via: dBpowerAMP V12.0
#
DISCID=7911502c
DTITLE=Various Artist - Field Recordings, Vol. 4: Mississippi and Alabama (1934-1942)
DYEAR=1998
DGENRE=Blues
TTITLE0=Frank Jordan - I'm Going to Leland
TTITLE1=Jim Henry - I Don't Mind the Weather If the Wind Don't Blow
TTITLE2=Charles "Big Charlie" Butler - Diamond Joe
TTITLE3=Lester Fairley - Old Cold 'Taters
TTITLE4=Eva Grace Boone - We're Goin' Around the Mountain
TTITLE5=Eva Grace Boone - Sissy in the Barn
TTITLE6=Eva Grace Boone - Little Rose Lee
TTITLE7=Eva Grace Boone - Old Lady Sittin' in the Dining Room
TTITLE8=Eva Grace Boone - Little Sally Walker
TTITLE9=Eva Grace Boone - All Around the Maypole
TTITLE10=Christine Shipp - Ol' Uncle Rabbit
TTITLE11=Christine Shipp - See-Lye Woman (Sea Lion)
TTITLE12=Anne Williams - Gwan Roun' Rabbit
TTITLE13=Anne Williams - Satisfy
TTITLE14=Various Artist - It Ain't Gonna Rain No More
TTITLE15=Blind Jesse Harris - Boll Weevil
TTITLE16=Blind Jesse Harris - Railroad Bill
TTITLE17=Blind Jesse Harris - Tilas Mack
TTITLE18=Blind Jesse Harris - Stagolee
TTITLE19=Blind Jesse Harris - Spanish War
TTITLE20=Blind Jesse Harris - All the Friends I Got Is Gone
TTITLE21=Blind Jesse Harris - Goin' to War
TTITLE22=Blind Jesse Harris - Brady
TTITLE23=Blind Jesse Harris - Sun Going Shine in My Door Some Day
TTITLE24=Blind Jesse Harris - Meridian Jail House
TTITLE25=Blind Jesse Harris - Didn't He Ramble?
TTITLE26=Blind Jesse Harris - Take a Whiff on Me
TTITLE27=Blind Jesse Harris - Kansas City
TTITLE28=Rich Manuel "Rich" Amerson - I'm Gwine to Texas
TTITLE29=Rich Manuel "Rich" Amerson - Steamboat Days (Steamboat-Loading Holler)
TTITLE30=Henry Hankins - Ho, Boy, Caincha Line? (Lining Track)
TTITLE31=McDonald Family - Rosie
TTITLE32=McDonald Family - Knock John Booker to de Low Ground
TTITLE33=Dock Reed - Trouble So Hard
TTITLE34=Dock Reed - Choose Yo' Seat and Set Down
TTITLE35=Dock Reed - Handwriting on de Wall
TTITLE36=Dock Reed - Another Man Done Gone
TTITLE37=Dock Reed - Boll Weevil Blues
TTITLE38=Dock Reed - Down on Me
TTITLE39=Dock Reed - Certainly Lord
TTITLE40=Dock Reed - Job, Job
TTITLE41=Harriet McClinton - Poor Little Johnny
TTITLE42=Harriet McClinton - Go to Sleep
TTITLE43=Hettie Godfrey - All Hid
EXTD=
EXTT0=
EXTT1=
EXTT2=
EXTT3=
EXTT4=
EXTT5=
EXTT6=
EXTT7=
EXTT8=
EXTT9=
EXTT10=
EXTT11=
EXTT12=
EXTT13=
EXTT14=
EXTT15=
EXTT16=
EXTT17=
EXTT18=
EXTT19=
EXTT20=
EXTT21=
EXTT22=
EXTT23=
EXTT24=
EXTT25=
EXTT26=
EXTT27=
EXTT28=
EXTT29=
EXTT30=
EXTT31=
EXTT32=
EXTT33=
EXTT34=
EXTT35=
EXTT36=
EXTT37=
EXTT38=
EXTT39=
EXTT40=
EXTT41=
EXTT42=
EXTT43=
PLAYORDER=
